<?xml version="1.0" encoding="UTF-8"?>
<svg version="1.1" xmlns="http://www.w3.org/2000/svg" width="1000" height="1865">
<path d="M0 0 C21.45 0 42.9 0 65 0 C65 21.45 65 42.9 65 65 C88.1 65 111.2 65 135 65 C135 43.55 135 22.1 135 0 C156.45 0 177.9 0 200 0 C200 21.45 200 42.9 200 65 C221.45 65 242.9 65 265 65 C265 88.1 265 111.2 265 135 C243.55 135 222.1 135 200 135 C200 156.45 200 177.9 200 200 C221.45 200 242.9 200 265 200 C265 287.45 265 374.9 265 465 C288.1 465 311.2 465 335 465 C335 531 335 597 335 665 C356.45 665 377.9 665 400 665 C400 709.55 400 754.1 400 800 C378.55 800 357.1 800 335 800 C335 821.45 335 842.9 335 865 C356.45 865 377.9 865 400 865 C400 952.45 400 1039.9 400 1130 C378.55 1130 357.1 1130 335 1130 C335 1153.1 335 1176.2 335 1200 C311.9 1200 288.8 1200 265 1200 C265 1242.9 265 1285.8 265 1330 C222.1 1330 179.2 1330 135 1330 C135 1506.55 135 1683.1 135 1865 C69 1865 3 1865 -65 1865 C-65 1688.45 -65 1511.9 -65 1330 C-88.1 1330 -111.2 1330 -135 1330 C-135 1506.55 -135 1683.1 -135 1865 C-222.45 1865 -309.9 1865 -400 1865 C-400 1843.55 -400 1822.1 -400 1800 C-378.55 1800 -357.1 1800 -335 1800 C-335 1644.9 -335 1489.8 -335 1330 C-377.9 1330 -420.8 1330 -465 1330 C-465 1287.1 -465 1244.2 -465 1200 C-488.1 1200 -511.2 1200 -535 1200 C-535 1155.45 -535 1110.9 -535 1065 C-556.45 1065 -577.9 1065 -600 1065 C-600 999 -600 933 -600 865 C-555.45 865 -510.9 865 -465 865 C-465 843.55 -465 822.1 -465 800 C-488.1 800 -511.2 800 -535 800 C-535 778.55 -535 757.1 -535 735 C-511.9 735 -488.8 735 -465 735 C-465 690.45 -465 645.9 -465 600 C-443.55 600 -422.1 600 -400 600 C-400 578.55 -400 557.1 -400 535 C-421.45 535 -442.9 535 -465 535 C-465 469 -465 403 -465 335 C-443.55 335 -422.1 335 -400 335 C-400 311.9 -400 288.8 -400 265 C-421.45 265 -442.9 265 -465 265 C-465 243.55 -465 222.1 -465 200 C-443.55 200 -422.1 200 -400 200 C-400 155.45 -400 110.9 -400 65 C-268 65 -136 65 0 65 C0 43.55 0 22.1 0 0 Z " fill="#120064" transform="translate(600,0)"/>
<path d="M0 0 C21.45 0 42.9 0 65 0 C65 21.45 65 42.9 65 65 C88.1 65 111.2 65 135 65 C135 43.55 135 22.1 135 0 C156.45 0 177.9 0 200 0 C200 21.45 200 42.9 200 65 C221.45 65 242.9 65 265 65 C265 88.1 265 111.2 265 135 C243.55 135 222.1 135 200 135 C200 156.45 200 177.9 200 200 C221.45 200 242.9 200 265 200 C265 287.45 265 374.9 265 465 C288.1 465 311.2 465 335 465 C335 531 335 597 335 665 C356.45 665 377.9 665 400 665 C400 709.55 400 754.1 400 800 C378.55 800 357.1 800 335 800 C335 821.45 335 842.9 335 865 C356.45 865 377.9 865 400 865 C400 952.45 400 1039.9 400 1130 C378.55 1130 357.1 1130 335 1130 C335 1108.55 335 1087.1 335 1065 C311.9 1065 288.8 1065 265 1065 C265 1043.55 265 1022.1 265 1000 C243.55 1000 222.1 1000 200 1000 C200 955.45 200 910.9 200 865 C178.55 865 157.1 865 135 865 C135 843.55 135 822.1 135 800 C111.9 800 88.8 800 65 800 C65 778.55 65 757.1 65 735 C43.55 735 22.1 735 0 735 C0 690.45 0 645.9 0 600 C44.55 600 89.1 600 135 600 C135 555.45 135 510.9 135 465 C111.9 465 88.8 465 65 465 C65 422.1 65 379.2 65 335 C43.55 335 22.1 335 0 335 C0 311.9 0 288.8 0 265 C-21.45 265 -42.9 265 -65 265 C-65 288.1 -65 311.2 -65 335 C-88.1 335 -111.2 335 -135 335 C-135 311.9 -135 288.8 -135 265 C-156.45 265 -177.9 265 -200 265 C-200 288.1 -200 311.2 -200 335 C-221.45 335 -242.9 335 -265 335 C-265 356.45 -265 377.9 -265 400 C-243.55 400 -222.1 400 -200 400 C-200 444.55 -200 489.1 -200 535 C-221.45 535 -242.9 535 -265 535 C-265 511.9 -265 488.8 -265 465 C-288.1 465 -311.2 465 -335 465 C-335 509.55 -335 554.1 -335 600 C-290.45 600 -245.9 600 -200 600 C-200 666 -200 732 -200 800 C-244.55 800 -289.1 800 -335 800 C-335 821.45 -335 842.9 -335 865 C-356.45 865 -377.9 865 -400 865 C-400 909.55 -400 954.1 -400 1000 C-421.45 1000 -442.9 1000 -465 1000 C-465 1021.45 -465 1042.9 -465 1065 C-422.1 1065 -379.2 1065 -335 1065 C-335 1109.55 -335 1154.1 -335 1200 C-401 1200 -467 1200 -535 1200 C-535 1155.45 -535 1110.9 -535 1065 C-556.45 1065 -577.9 1065 -600 1065 C-600 999 -600 933 -600 865 C-555.45 865 -510.9 865 -465 865 C-465 843.55 -465 822.1 -465 800 C-488.1 800 -511.2 800 -535 800 C-535 778.55 -535 757.1 -535 735 C-511.9 735 -488.8 735 -465 735 C-465 690.45 -465 645.9 -465 600 C-443.55 600 -422.1 600 -400 600 C-400 578.55 -400 557.1 -400 535 C-421.45 535 -442.9 535 -465 535 C-465 469 -465 403 -465 335 C-443.55 335 -422.1 335 -400 335 C-400 311.9 -400 288.8 -400 265 C-421.45 265 -442.9 265 -465 265 C-465 243.55 -465 222.1 -465 200 C-443.55 200 -422.1 200 -400 200 C-400 155.45 -400 110.9 -400 65 C-268 65 -136 65 0 65 C0 43.55 0 22.1 0 0 Z " fill="#1B1A1A" transform="translate(600,0)"/>
<path d="M0 0 C21.45 0 42.9 0 65 0 C65 23.1 65 46.2 65 70 C88.1 70 111.2 70 135 70 C135 46.9 135 23.8 135 0 C156.45 0 177.9 0 200 0 C200 23.1 200 46.2 200 70 C221.45 70 242.9 70 265 70 C265 112.9 265 155.8 265 200 C288.1 200 311.2 200 335 200 C335 244.55 335 289.1 335 335 C290.45 335 245.9 335 200 335 C200 379.55 200 424.1 200 470 C221.45 470 242.9 470 265 470 C265 491.45 265 512.9 265 535 C243.55 535 222.1 535 200 535 C200 643.9 200 752.8 200 865 C221.45 865 242.9 865 265 865 C265 888.1 265 911.2 265 935 C156.1 935 47.2 935 -65 935 C-65 977.9 -65 1020.8 -65 1065 C-131 1065 -197 1065 -265 1065 C-265 1022.1 -265 979.2 -265 935 C-222.1 935 -179.2 935 -135 935 C-135 890.45 -135 845.9 -135 800 C-177.9 800 -220.8 800 -265 800 C-265 778.55 -265 757.1 -265 735 C-243.55 735 -222.1 735 -200 735 C-200 690.45 -200 645.9 -200 600 C-178.55 600 -157.1 600 -135 600 C-135 578.55 -135 557.1 -135 535 C-90.45 535 -45.9 535 0 535 C0 469 0 403 0 335 C-44.55 335 -89.1 335 -135 335 C-135 290.45 -135 245.9 -135 200 C-111.9 200 -88.8 200 -65 200 C-65 223.1 -65 246.2 -65 270 C-43.55 270 -22.1 270 0 270 C0 225.45 0 180.9 0 135 C-21.45 135 -42.9 135 -65 135 C-65 113.55 -65 92.1 -65 70 C-43.55 70 -22.1 70 0 70 C0 46.9 0 23.8 0 0 Z " fill="#1A0675" transform="translate(400,265)"/>
<path d="M0 0 C21.45 0 42.9 0 65 0 C65 23.1 65 46.2 65 70 C88.1 70 111.2 70 135 70 C135 46.9 135 23.8 135 0 C156.45 0 177.9 0 200 0 C200 23.1 200 46.2 200 70 C221.45 70 242.9 70 265 70 C265 112.9 265 155.8 265 200 C288.1 200 311.2 200 335 200 C335 244.55 335 289.1 335 335 C290.45 335 245.9 335 200 335 C200 379.55 200 424.1 200 470 C178.55 470 157.1 470 135 470 C135 446.9 135 423.8 135 400 C90.45 400 45.9 400 0 400 C0 378.55 0 357.1 0 335 C-44.55 335 -89.1 335 -135 335 C-135 290.45 -135 245.9 -135 200 C-111.9 200 -88.8 200 -65 200 C-65 223.1 -65 246.2 -65 270 C-43.55 270 -22.1 270 0 270 C0 225.45 0 180.9 0 135 C-21.45 135 -42.9 135 -65 135 C-65 113.55 -65 92.1 -65 70 C-43.55 70 -22.1 70 0 70 C0 46.9 0 23.8 0 0 Z " fill="#F6E7D0" transform="translate(400,265)"/>
<path d="M0 0 C66 0 132 0 200 0 C200 176.55 200 353.1 200 535 C112.55 535 25.1 535 -65 535 C-65 513.55 -65 492.1 -65 470 C-43.55 470 -22.1 470 0 470 C0 314.9 0 159.8 0 0 Z " fill="#002E3B" transform="translate(265,1330)"/>
<path d="M0 0 C66 0 132 0 200 0 C200 176.55 200 353.1 200 535 C134 535 68 535 0 535 C0 358.45 0 181.9 0 0 Z " fill="#002E3B" transform="translate(535,1330)"/>
<path d="M0 0 C66 0 132 0 200 0 C200 44.55 200 89.1 200 135 C176.9 135 153.8 135 130 135 C130 177.9 130 220.8 130 265 C87.1 265 44.2 265 0 265 C0 177.55 0 90.1 0 0 Z " fill="#1A333B" transform="translate(735,1065)"/>
<path d="M0 0 C66 0 132 0 200 0 C200 44.55 200 89.1 200 135 C112.55 135 25.1 135 -65 135 C-65 113.55 -65 92.1 -65 70 C-43.55 70 -22.1 70 0 70 C0 46.9 0 23.8 0 0 Z " fill="#F6E7D0" transform="translate(265,1730)"/>
<path d="M0 0 C44.55 0 89.1 0 135 0 C135 66 135 132 135 200 C69 200 3 200 -65 200 C-65 178.55 -65 157.1 -65 135 C-43.55 135 -22.1 135 0 135 C0 90.45 0 45.9 0 0 Z " fill="#120064" transform="translate(400,665)"/>
<path d="M0 0 C66 0 132 0 200 0 C200 44.55 200 89.1 200 135 C134 135 68 135 0 135 C0 90.45 0 45.9 0 0 Z " fill="#F6E7D0" transform="translate(535,1730)"/>
<path d="M0 0 C42.9 0 85.8 0 130 0 C130 42.9 130 85.8 130 130 C87.1 130 44.2 130 0 130 C0 87.1 0 44.2 0 0 Z " fill="#F6E7D0" transform="translate(735,1200)"/>
<path d="M0 0 C42.9 0 85.8 0 130 0 C130 42.9 130 85.8 130 130 C87.1 130 44.2 130 0 130 C0 87.1 0 44.2 0 0 Z " fill="#F6E7D0" transform="translate(135,1200)"/>
<path d="M0 0 C66 0 132 0 200 0 C200 23.1 200 46.2 200 70 C134 70 68 70 0 70 C0 46.9 0 23.8 0 0 Z " fill="#530808" transform="translate(65,1130)"/>
<path d="M0 0 C66 0 132 0 200 0 C200 21.45 200 42.9 200 65 C134 65 68 65 0 65 C0 43.55 0 22.1 0 0 Z " fill="#1A333B" transform="translate(535,1665)"/>
<path d="M0 0 C66 0 132 0 200 0 C200 21.45 200 42.9 200 65 C134 65 68 65 0 65 C0 43.55 0 22.1 0 0 Z " fill="#1A333B" transform="translate(265,1665)"/>
<path d="M0 0 C66 0 132 0 200 0 C200 21.45 200 42.9 200 65 C134 65 68 65 0 65 C0 43.55 0 22.1 0 0 Z " fill="#1A333B" transform="translate(65,1065)"/>
<path d="M0 0 C21.45 0 42.9 0 65 0 C65 66 65 132 65 200 C43.55 200 22.1 200 0 200 C0 134 0 68 0 0 Z " fill="#F6E7D0" transform="translate(135,335)"/>
<path d="M0 0 C23.1 0 46.2 0 70 0 C70 42.9 70 85.8 70 130 C46.9 130 23.8 130 0 130 C0 87.1 0 44.2 0 0 Z " fill="#1A0675" transform="translate(665,1200)"/>
<path d="M0 0 C21.45 0 42.9 0 65 0 C65 44.55 65 89.1 65 135 C43.55 135 22.1 135 0 135 C0 90.45 0 45.9 0 0 Z " fill="#1A0675" transform="translate(735,865)"/>
<path d="M0 0 C21.45 0 42.9 0 65 0 C65 44.55 65 89.1 65 135 C43.55 135 22.1 135 0 135 C0 90.45 0 45.9 0 0 Z " fill="#422929" transform="translate(535,400)"/>
<path d="M0 0 C21.45 0 42.9 0 65 0 C65 44.55 65 89.1 65 135 C43.55 135 22.1 135 0 135 C0 90.45 0 45.9 0 0 Z " fill="#422929" transform="translate(335,400)"/>
<path d="M0 0 C23.1 0 46.2 0 70 0 C70 21.45 70 42.9 70 65 C46.9 65 23.8 65 0 65 C0 43.55 0 22.1 0 0 Z " fill="#1A0675" transform="translate(665,800)"/>
<path d="M0 0 C21.45 0 42.9 0 65 0 C65 21.45 65 42.9 65 65 C43.55 65 22.1 65 0 65 C0 43.55 0 22.1 0 0 Z " fill="#1A0675" transform="translate(800,1000)"/>
<path d="M0 0 C21.45 0 42.9 0 65 0 C65 21.45 65 42.9 65 65 C43.55 65 22.1 65 0 65 C0 43.55 0 22.1 0 0 Z " fill="#F6E7D0" transform="translate(800,335)"/>
</svg>
